<svg xmlns="http://www.w3.org/2000/svg" viewBox="0 0 64 64">
  <circle cx="32" cy="32" r="25" fill="#1AAD19" stroke="#FFFDF5" stroke-width="4"/>
  <g transform="translate(10 5) scale(.70)">
    <path fill="#FFFFFF" d="M26.5 15.5C14.9 15.5 5.5 22.7 5.5 31.6c0 5 3 9.5 7.8 12.4l-1.9 6.3 7.2-3.5c2.4.6 5.1.9 7.9.9 11.6 0 21-7.2 21-16.1s-9.4-16.1-21-16.1Z"/>
    <path fill="#FFFFFF" d="M40.2 29.2c-10.4 0-18.8 6.5-18.8 14.5s8.4 14.5 18.8 14.5c2.2 0 4.3-.3 6.2-.9l6.4 3.2-1.7-5.6c4.8-2.7 7.9-6.8 7.9-11.2 0-8-8.4-14.5-18.8-14.5Z"/>
    <circle cx="20.1" cy="29.7" r="2.6" fill="#1AAD19"/>
    <circle cx="32.6" cy="29.7" r="2.6" fill="#1AAD19"/>
    <circle cx="34.3" cy="43.1" r="2.4" fill="#1AAD19"/>
    <circle cx="46" cy="43.1" r="2.4" fill="#1AAD19"/>
  </g>
</svg>
